<?xml version="1.0" encoding="UTF-8" standalone="no"?>
<svg
   xmlns:dc="http://purl.org/dc/elements/1.1/"
   xmlns:cc="http://creativecommons.org/ns#"
   xmlns:rdf="http://www.w3.org/1999/02/22-rdf-syntax-ns#"
   xmlns:svg="http://www.w3.org/2000/svg"
   xmlns="http://www.w3.org/2000/svg"
   viewBox="0 0 112 112"
   height="112"
   width="112"
   xml:space="preserve"
   id="svg2"
   version="1.1"><metadata
     id="metadata8"><rdf:RDF><cc:Work
         rdf:about=""><dc:format>image/svg+xml</dc:format><dc:type
           rdf:resource="http://purl.org/dc/dcmitype/StillImage" /></cc:Work></rdf:RDF></metadata><defs
     id="defs6" /><g
     transform="matrix(1.3333333,0,0,-1.3333333,0,112)"
     id="g10"><g
       transform="translate(75.2783,61.2129)"
       id="g12"><path
         id="path14"
         style="fill:#abe633;fill-opacity:1;fill-rule:nonzero;stroke:none"
         d="M 0,0 -33.278,-19.212 -66.557,0 -33.278,19.213 Z" /></g><g
       transform="translate(8.7217,61.2129)"
       id="g16"><path
         id="path18"
         style="fill:#9acd32;fill-opacity:1;fill-rule:nonzero;stroke:none"
         d="M 0,0 33.278,-19.214 V -57.639 L 0,-38.427 Z" /></g><g
       transform="translate(75.2783,61.2129)"
       id="g20"><path
         id="path22"
         style="fill:#8ab82c;fill-opacity:1;fill-rule:nonzero;stroke:none"
         d="M 0,0 -33.278,-19.214 V -57.639 L 0,-38.427 Z" /></g><g
       transform="translate(8.5996,61.2832)"
       id="g24"><path
         id="path26"
         style="fill:none;stroke:#def1b8;stroke-width:1;stroke-linecap:round;stroke-linejoin:bevel;stroke-miterlimit:10;stroke-dasharray:none;stroke-opacity:1"
         d="M 0,0 33.399,-19.281 V -57.846" /></g><g
       transform="translate(41.999,42.002)"
       id="g28"><path
         id="path30"
         style="fill:none;stroke:#def1b8;stroke-width:1;stroke-linecap:round;stroke-linejoin:bevel;stroke-miterlimit:10;stroke-dasharray:none;stroke-opacity:1"
         d="M 0,0 33.4,19.281" /></g><g
       transform="translate(42,81.5806)"
       id="g32"><path
         id="path34"
         style="fill:#000000;fill-opacity:1;fill-rule:nonzero;stroke:none"
         d="m 0,0 -0.5,-0.289 -33.278,-19.212 -0.5,-0.29 v -0.577 -38.426 -0.578 l 0.5,-0.289 33.278,-19.212 0.5,-0.288 0.5,0.288 33.278,19.212 0.5,0.289 v 0.578 38.426 0.577 l -0.5,0.29 L 0.5,-0.289 Z M 0,-1.155 33.278,-20.368 V -58.794 L 0,-78.006 -33.278,-58.794 v 38.426 z" /></g></g></svg>